<?xml version="1.0" encoding="UTF-8"?>
<svg id="_2" data-name="2" xmlns="http://www.w3.org/2000/svg" viewBox="0 0 24 24" width="24" height="24">
  <defs>
    <style>
     .cls-1 {
        fill: #fff;
      }
    </style>
  </defs>
  <g id="_1-2" data-name="1">
    <path class="cls-1" d="M20.98,9.83c-2.06,0-4.07-.64-5.75-1.84v8.37c0,4.21-3.41,7.61-7.62,7.61C3.41,23.97,0,20.56,0,16.36c0-4.21,3.41-7.61,7.62-7.61.35,0,.7.02,1.05.07v4.21c-1.84-.58-3.8.44-4.38,2.28-.58,1.84.44,3.8,2.28,4.38,1.84.58,3.8-.44,4.38-2.28.11-.34.16-.69.16-1.05V0h4.12c0,.35.03.7.09,1.04h0c.29,1.55,1.2,2.9,2.52,3.76.93.61,2.02.94,3.14.94v4.09Z"/>
  </g>
</svg>