<?xml version="1.0" encoding="UTF-8"?>
<svg id="_2" data-name="2" xmlns="http://www.w3.org/2000/svg" viewBox="0 0 531.07 91.19">
  <defs>
    <style>
      .cls-1, .cls-2 {
        fill: #f08300;
      }

      .cls-1, .cls-3 {
        fill-rule: evenodd;
      }

      .cls-3 {
        fill: #00a0e9;
      }
    </style>
  </defs>
  <g id="_1-2" data-name="1">
    <g>
      <path class="cls-3" d="M132.08,48.69l-19.61-29.77h13.18l12.15,20.72,12.78-20.72h13.42l-20.64,30.17v22.78h-11.27v-23.18h0ZM188.05,18.92v31.75c0,2.54.21,4.51.64,5.91.42,1.4,1.14,2.61,2.14,3.61,2.22,2.17,5.32,3.25,9.29,3.25,2.54,0,4.75-.44,6.63-1.31,1.88-.87,3.19-2.05,3.93-3.53.74-1.48,1.11-4.13,1.11-7.94v-31.75h11.27v31.2c0,4.13-.44,7.53-1.31,10.2-.87,2.67-2.21,4.83-4.01,6.47-4.18,3.65-10.11,5.48-17.78,5.48-8.2,0-14.18-1.8-17.94-5.4-1.96-1.85-3.31-3.93-4.05-6.23-.74-2.3-1.11-5.54-1.11-9.73v-31.99h11.19ZM317.29,33.05v38.82h-10.8V18.92h14.45l21.04,39.45V18.92h10.72v52.95h-13.81l-21.59-38.82h0ZM378.73,18.92l11.91,39.85,11.11-39.85h12.54l11.11,39.85,11.91-39.85h11.59l-17.07,52.95h-12.86l-10.96-38.18-10.95,38.18h-12.86l-17.15-52.95h11.67ZM502.97,18.92v9.45h-14.69c-3.81,0-6.59.26-8.34.79-1.75.53-3.2,1.56-4.37,3.1-.79,1.06-1.34,2.12-1.63,3.18-.29,1.06-.54,2.86-.75,5.4h29.77v9.45h-29.77c.42,4.55,1.77,7.71,4.05,9.49s6.14,2.66,11.59,2.66h14.13v9.45h-14.69c-3.97,0-7.46-.24-10.48-.71-4.76-.79-8.55-2.88-11.35-6.27-4.02-4.87-6.03-11.46-6.03-19.77,0-9.21,2.83-16.38,8.49-21.51,1.96-1.75,4.04-2.96,6.23-3.65,2.2-.69,5.15-1.03,8.85-1.03h18.97Z"/>
      <rect class="cls-2" x="519.8" y="18.92" width="11.27" height="52.95"/>
      <polygon class="cls-1" points="236.07 71.87 257.98 18.92 270.92 18.92 292.83 71.87 279.66 71.87 264.49 31.7 249.25 71.87 236.07 71.87"/>
    </g>
    <g>
      <path class="cls-3" d="M35.08.23c61.51,31.61,12.41,83.84-18.51,55.46,30.91,11.17,50.86-8.43,20.94-26.5,8.43,24.69-27.99,23.37-33.69-2.55-2.46,5.64-3.82,11.86-3.82,18.41,0,25.49,20.66,46.15,46.15,46.15s46.15-20.66,46.15-46.15c0-16.29-8.44-30.61-21.19-38.82,21.66,24.99,11.13,45.45,11.13,45.45C77.74,11.42,44.94,1.86,36.06,0c-.33.07-.65.15-.98.23Z"/>
      <path class="cls-1" d="M55.49,34.51c.2-16.97-23.73-26.71-32.14-29.6-4.42,2.52-8.38,5.74-11.74,9.52,33.12,5.14,43.88,20.08,43.88,20.08Z"/>
    </g>
  </g>
</svg>