<?xml version="1.0" encoding="UTF-8"?>
<svg id="2" data-name="2" xmlns="http://www.w3.org/2000/svg" viewBox="0 0 159.25 157.34">
  <defs>
    <style>
      .cls-1 {
        fill: #f08300;
      }

      .cls-1, .cls-2 {
        fill-rule: evenodd;
      }

      .cls-2 {
        fill: #00a0e9;
      }
    </style>
  </defs>
  <g id="1-2" data-name="1">
    <g>
      <path class="cls-2" d="M60.53.4c106.13,54.55,21.42,144.66-31.94,95.7,53.33,19.27,87.76-14.55,36.14-45.73,14.55,42.6-48.29,40.32-58.13-4.41C2.35,55.68,0,66.43,0,77.72c0,43.98,35.65,79.63,79.63,79.63s79.63-35.65,79.63-79.63c0-28.11-14.56-52.81-36.56-66.98,37.38,43.12,19.2,78.42,19.2,78.42C134.14,19.71,77.55,3.21,62.21,0c-.56.13-1.13.26-1.69.4Z"/>
      <path class="cls-1" d="M95.76,59.55c.34-29.28-40.94-46.08-55.46-51.08-7.63,4.34-14.47,9.91-20.25,16.43,57.14,8.87,75.71,34.65,75.71,34.65Z"/>
    </g>
  </g>
</svg>